<svg width="23" height="21" viewBox="0 0 23 21" fill="none" xmlns="http://www.w3.org/2000/svg">
<path d="M0.726483 20.2497C0.588343 20.4888 0.670192 20.7946 0.909299 20.9327C1.14841 21.0709 1.45422 20.989 1.59236 20.7499L0.726483 20.2497ZM21.8168 20.7501C21.9549 20.9892 22.2607 21.0711 22.4999 20.9329C22.739 20.7948 22.8208 20.489 22.6827 20.2499L21.8168 20.7501ZM18.1613 7.4568C18.1613 11.0228 15.2705 13.9136 11.7045 13.9136V14.9136C15.8228 14.9136 19.1613 11.5751 19.1613 7.4568H18.1613ZM11.7045 13.9136C8.1385 13.9136 5.24769 11.0228 5.24769 7.4568H4.24769C4.24769 11.5751 7.58621 14.9136 11.7045 14.9136V13.9136ZM5.24769 7.4568C5.24769 3.89081 8.1385 1 11.7045 1V0C7.58621 0 4.24769 3.33852 4.24769 7.4568H5.24769ZM11.7045 1C15.2705 1 18.1613 3.89081 18.1613 7.4568H19.1613C19.1613 3.33852 15.8228 0 11.7045 0V1ZM1.59236 20.7499C2.6176 18.9753 4.09178 17.5018 5.8668 16.4773L5.36693 15.6112C3.43991 16.7234 1.83951 18.3231 0.726483 20.2497L1.59236 20.7499ZM5.8668 16.4773C7.64183 15.4529 9.65505 14.9136 11.7045 14.9136L11.7045 13.9136C9.47956 13.9136 7.29394 14.4991 5.36693 15.6112L5.8668 16.4773ZM11.7045 14.9136C13.7539 14.9136 15.7674 15.453 17.5424 16.4775L18.0423 15.6114C16.1153 14.4992 13.9294 13.9136 11.7045 13.9136L11.7045 14.9136ZM17.5424 16.4775C19.3174 17.502 20.7916 18.9755 21.8168 20.7501L22.6827 20.2499C21.5697 18.3233 19.9693 16.7236 18.0423 15.6114L17.5424 16.4775Z" />
</svg>
