<?xml version="1.0" encoding="utf-8"?><svg viewBox="0 0 111 91" xmlns="http://www.w3.org/2000/svg" xmlns:xlink="http://www.w3.org/1999/xlink"><style>:root>svg{display:none}:root>svg:target{display:block}</style><svg fill="none" viewBox="0 0 111 91" id="footer-logo" xmlns="http://www.w3.org/2000/svg"><path d="M92.748 27.876c-3.82 5.942-9.941 8.184-17.401 10.858-7.202 2.573-20.172 2.462-20.172 2.462 3.182 1.095 10.348 2.764 18.285 2.533 7.99-.233 12.027-2.046 17.188-2.526 6.284-.586 10.584 4.409 8.753 8.34 3.71-5.14 4.938-10.3 4.64-16.534.66.435 1.434.666 2.224.665a4.077 4.077 0 003.443-1.893 4.099 4.099 0 00-1.029-5.498 4.078 4.078 0 00-5.542.672c-1.256-4.303-3.978-8.79-8.056-12.955 1.724 3.987-.04 10.321-2.337 13.883" fill="#C5C5C5"/><path d="M92.748 27.876c-3.82 5.942-9.941 8.184-17.401 10.858-7.202 2.573-20.172 2.462-20.172 2.462 3.182 1.095 10.348 2.764 18.285 2.533 7.99-.233 12.027-2.046 17.188-2.526 6.284-.586 10.584 4.409 8.753 8.34 3.71-5.14 4.938-10.3 4.64-16.534.66.435 1.434.666 2.224.665a4.077 4.077 0 003.443-1.893 4.099 4.099 0 00-1.029-5.498 4.078 4.078 0 00-5.542.672c-1.256-4.303-3.978-8.79-8.056-12.955 1.724 3.987-.04 10.321-2.337 13.883" fill="#C5C9CE"/><path d="M70.08 4.134a4.07 4.07 0 001.256 2.944c-8.89 2.365-14.263 9.95-16.162 13.745 1.813-2.05 9.926-6.15 13.159 0 1.265 2.416.851 5.988-1.44 8.973-2.242 2.92-4.948 5.133-6.1 6.067-2.095 1.702-4.652 4.046-5.618 5.333 6.206-1.904 13.328-4.765 19.236-10.8 3.324-3.404 4.435-5.843 5.755-10.38.72-2.5 2.284-4.78 4.612-6.031 2.995-1.615 6.92-1.705 10.303.015-2.331-2.613-8.841-7.404-17.505-7.633a4.095 4.095 0 00-.627-5.21A4.076 4.076 0 0071.72.86a4.084 4.084 0 00-1.64 3.274z" fill="#C5C5C5"/><path d="M70.08 4.134a4.07 4.07 0 001.256 2.944c-8.89 2.365-14.263 9.95-16.162 13.745 1.813-2.05 9.926-6.15 13.159 0 1.265 2.416.851 5.988-1.44 8.973-2.242 2.92-4.948 5.133-6.1 6.067-2.095 1.702-4.652 4.046-5.618 5.333 6.206-1.904 13.328-4.765 19.236-10.8 3.324-3.404 4.435-5.843 5.755-10.38.72-2.5 2.284-4.78 4.612-6.031 2.995-1.615 6.92-1.705 10.303.015-2.331-2.613-8.841-7.404-17.505-7.633a4.095 4.095 0 00-.627-5.21A4.076 4.076 0 0071.72.86a4.084 4.084 0 00-1.64 3.274z" fill="#C5C9CE"/><path d="M65.595 53.114c3.065 2.257 4.99 3.558 7.215 6.247 4.034 4.866 2.712 11.737-.602 14.705 2.69-1.908 7.18-5.216 11.806-9v.1a4.093 4.093 0 002.38 3.721 4.068 4.068 0 004.364-.625 4.086 4.086 0 001.244-4.24 4.086 4.086 0 00-3.332-2.894c4.555-4.01 8.69-8.184 10.73-11.586-2.512 2.55-8.603 3.842-12.394 3.759-6.283-.148-9.856-1.4-16.62-3.759-5.538-1.922-12.99-5.32-15.211-8.346 1.132 3.116 4.22 7.352 10.42 11.906" fill="#C5C5C5"/><path d="M65.595 53.114c3.065 2.257 4.99 3.558 7.215 6.247 4.034 4.866 2.712 11.737-.602 14.705 2.69-1.908 7.18-5.216 11.806-9v.1a4.093 4.093 0 002.38 3.721 4.068 4.068 0 004.364-.625 4.086 4.086 0 001.244-4.24 4.086 4.086 0 00-3.332-2.894c4.555-4.01 8.69-8.184 10.73-11.586-2.512 2.55-8.603 3.842-12.394 3.759-6.283-.148-9.856-1.4-16.62-3.759-5.538-1.922-12.99-5.32-15.211-8.346 1.132 3.116 4.22 7.352 10.42 11.906" fill="#C5C9CE"/><path d="M51.926 60.376c-.42 3.37-.462 8.635-2.829 11.65-2.214 2.823-8.328 3.328-10.97 2.04 4.376 2.938 10.446 6.298 15.227 8.977a4.1 4.1 0 00-.887 6.873 4.076 4.076 0 006.562-2.185 4.1 4.1 0 00-2.138-4.63c4.791-2.691 10.914-6.08 15.317-9.035-2.64 1.288-8.749.783-10.963-2.04-2.366-3.015-2.415-8.28-2.83-11.65-.797-6.39-3.24-19.18-3.24-19.18s-2.445 12.786-3.248 19.176" fill="#C5C5C5"/><path d="M51.926 60.376c-.42 3.37-.462 8.635-2.829 11.65-2.214 2.823-8.328 3.328-10.97 2.04 4.376 2.938 10.446 6.298 15.227 8.977a4.1 4.1 0 00-.887 6.873 4.076 4.076 0 006.562-2.185 4.1 4.1 0 00-2.138-4.63c4.791-2.691 10.914-6.08 15.317-9.035-2.64 1.288-8.749.783-10.963-2.04-2.366-3.015-2.415-8.28-2.83-11.65-.797-6.39-3.24-19.18-3.24-19.18s-2.445 12.786-3.248 19.176" fill="#C5C9CE"/><path d="M32.105 4.135c-.002.8.23 1.581.668 2.248-8.677.23-15.179 5.005-17.516 7.618 3.384-1.72 7.319-1.615 10.31 0 2.328 1.252 3.896 3.532 4.616 6.031 1.317 4.523 2.428 6.962 5.752 10.357 5.904 6.035 13.03 8.903 19.24 10.807-.964-1.287-3.53-3.647-5.621-5.339-1.153-.934-3.864-3.148-6.104-6.067-2.292-2.985-2.707-6.559-1.436-8.973 3.231-6.15 11.343-2.044 13.16.006-1.9-3.795-7.279-11.386-16.165-13.751a4.086 4.086 0 001.181-3.685 4.09 4.09 0 00-2.416-3.02A4.068 4.068 0 0032.589 2.2a4.094 4.094 0 00-.484 1.936z" fill="#C5C5C5"/><path d="M32.105 4.135c-.002.8.23 1.581.668 2.248-8.677.23-15.179 5.005-17.516 7.618 3.384-1.72 7.319-1.615 10.31 0 2.328 1.252 3.896 3.532 4.616 6.031 1.317 4.523 2.428 6.962 5.752 10.357 5.904 6.035 13.03 8.903 19.24 10.807-.964-1.287-3.53-3.647-5.621-5.339-1.153-.934-3.864-3.148-6.104-6.067-2.292-2.985-2.707-6.559-1.436-8.973 3.231-6.15 11.343-2.044 13.16.006-1.9-3.795-7.279-11.386-16.165-13.751a4.086 4.086 0 001.181-3.685 4.09 4.09 0 00-2.416-3.02A4.068 4.068 0 0032.589 2.2a4.094 4.094 0 00-.484 1.936z" fill="#C5C9CE"/><path d="M7.205 26.947a4.08 4.08 0 00-3.658-1.424 4.075 4.075 0 00-3.165 2.326 4.098 4.098 0 001.735 5.313 4.043 4.043 0 004.184-.161c-.302 6.24.92 11.403 4.642 16.541-1.839-3.93 2.464-8.933 8.75-8.347 5.163.48 9.189 2.294 17.185 2.526 7.935.23 15.109-1.43 18.297-2.525 0 0-12.974.103-20.17-2.47-7.472-2.666-13.582-4.916-17.407-10.85-2.297-3.563-4.065-9.888-2.34-13.875-4.08 4.16-6.788 8.643-8.05 12.946" fill="#C5C5C5"/><path d="M7.205 26.947a4.08 4.08 0 00-3.658-1.424 4.075 4.075 0 00-3.165 2.326 4.098 4.098 0 001.735 5.313 4.043 4.043 0 004.184-.161c-.302 6.24.92 11.403 4.642 16.541-1.839-3.93 2.464-8.933 8.75-8.347 5.163.48 9.189 2.294 17.185 2.526 7.935.23 15.109-1.43 18.297-2.525 0 0-12.974.103-20.17-2.47-7.472-2.666-13.582-4.916-17.407-10.85-2.297-3.563-4.065-9.888-2.34-13.875-4.08 4.16-6.788 8.643-8.05 12.946" fill="#C5C9CE"/><path d="M39.952 49.557c-6.754 2.36-10.338 3.596-16.62 3.744-3.795.083-9.882-1.208-12.389-3.759 2.035 3.404 6.174 7.576 10.726 11.586a4.074 4.074 0 00-3.333 2.897 4.097 4.097 0 001.246 4.241 4.074 4.074 0 006.102-.888c.422-.66.645-1.427.644-2.211a.96.96 0 00-.01-.1 231.766 231.766 0 0011.808 8.999c-3.314-2.968-4.632-9.831-.597-14.706 2.227-2.688 4.15-3.993 7.214-6.239 6.204-4.562 9.287-8.817 10.432-11.925-2.228 3.025-9.68 6.431-15.223 8.361z" fill="#C5C5C5"/><path d="M39.952 49.557c-6.754 2.36-10.338 3.596-16.62 3.744-3.795.083-9.882-1.208-12.389-3.759 2.035 3.404 6.174 7.576 10.726 11.586a4.074 4.074 0 00-3.333 2.897 4.097 4.097 0 001.246 4.241 4.074 4.074 0 006.102-.888c.422-.66.645-1.427.644-2.211a.96.96 0 00-.01-.1 231.766 231.766 0 0011.808 8.999c-3.314-2.968-4.632-9.831-.597-14.706 2.227-2.688 4.15-3.993 7.214-6.239 6.204-4.562 9.287-8.817 10.432-11.925-2.228 3.025-9.68 6.431-15.223 8.361z" fill="#C5C9CE"/></svg><svg fill="none" viewBox="0 0 20 20" id="icon-dz" xmlns="http://www.w3.org/2000/svg"><path d="M11.929 11.929C10.357 13.55 10.243 15.57 10.107 20c4.129 0 6.979-.014 8.45-1.443C19.986 17.086 20 14.1 20 10.107c-4.429.143-6.45.25-8.071 1.822zM0 10.107c0 3.993.014 6.979 1.443 8.45C2.914 19.986 5.764 20 9.893 20c-.143-4.429-.25-6.45-1.822-8.071C6.45 10.357 4.43 10.243 0 10.107zM9.893 0C5.77 0 2.914.014 1.443 1.443.014 2.914 0 5.9 0 9.893c4.429-.143 6.45-.25 8.071-1.822C9.643 6.45 9.757 4.43 9.893 0zm2.036 8.071C10.357 6.45 10.243 4.43 10.107 0c4.129 0 6.979.014 8.45 1.443C19.986 2.914 20 5.9 20 9.893c-4.429-.143-6.45-.25-8.071-1.822z" fill="#fff" fill-opacity=".7"/></svg><svg fill="none" viewBox="0 0 13 22" id="icon-fb" xmlns="http://www.w3.org/2000/svg"><path d="M12.158.166h-3.27a5.56 5.56 0 00-3.855 1.537 5.148 5.148 0 00-1.596 3.71V8.56H.167v4.197h3.27v8.394h4.36v-8.394h3.27l1.091-4.197h-4.36V5.412c0-.278.114-.545.319-.742.204-.196.482-.307.77-.307h3.271V.166z" fill="#fff" fill-opacity=".7"/></svg><svg fill="none" viewBox="0 0 22 22" id="icon-inst" xmlns="http://www.w3.org/2000/svg"><path fill-rule="evenodd" clip-rule="evenodd" d="M.167 4.663A4.497 4.497 0 014.663.166h11.992a4.497 4.497 0 014.496 4.497v11.991a4.497 4.497 0 01-4.496 4.497H4.663a4.497 4.497 0 01-4.496-4.497V4.663zm14.989 5.995a4.497 4.497 0 11-8.994 0 4.497 4.497 0 018.994 0zm1.499-5.246a.75.75 0 100-1.499.75.75 0 000 1.5z" fill="#fff" fill-opacity=".7"/></svg><svg fill="none" viewBox="0 0 13 22" id="icon-ok" xmlns="http://www.w3.org/2000/svg"><path d="M6.187 11.011c2.939 0 5.334-2.435 5.334-5.422C11.521 2.6 9.127.166 6.188.166 3.217.166.821 2.601.821 5.589c0 2.987 2.396 5.422 5.366 5.422zm0-7.663c1.214 0 2.204 1.007 2.204 2.24 0 1.235-.99 2.241-2.204 2.241-1.214 0-2.204-1.006-2.204-2.24a2.187 2.187 0 012.204-2.24zM8.327 15.46c1.086-.26 2.14-.682 3.099-1.299.734-.454.958-1.46.479-2.208a1.541 1.541 0 00-2.172-.487 6.689 6.689 0 01-7.187 0 1.575 1.575 0 00-2.172.487c-.416.747-.192 1.721.543 2.176a10 10 0 003.098 1.299l-2.97 3.02a1.606 1.606 0 000 2.24c.319.325.702.455 1.117.455a1.64 1.64 0 001.118-.455l2.94-2.987 2.938 2.987a1.544 1.544 0 002.204 0 1.606 1.606 0 000-2.24L8.327 15.46z" fill="#fff" fill-opacity=".7"/></svg><svg fill="none" viewBox="0 0 20 20" id="icon-search" xmlns="http://www.w3.org/2000/svg"><path d="M19 19l-4.35-4.35M17 9A8 8 0 111 9a8 8 0 0116 0z" stroke="#000" stroke-linecap="round" stroke-linejoin="round"/></svg><svg fill="none" viewBox="0 0 19 22" id="icon-tt" xmlns="http://www.w3.org/2000/svg"><path d="M10.115.184c1.129-.018 2.251-.007 3.373-.018.067 1.339.542 2.702 1.509 3.648.965.97 2.33 1.414 3.657 1.564V8.9c-1.244-.04-2.494-.303-3.623-.846-.492-.226-.95-.516-1.399-.813-.005 2.555.01 5.106-.016 7.651a6.714 6.714 0 01-1.166 3.446c-1.129 1.677-3.087 2.77-5.099 2.805-1.233.071-2.466-.27-3.517-.898C2.09 19.202.865 17.296.687 15.25c-.02-.438-.028-.874-.01-1.301A6.584 6.584 0 012.904 9.61c1.429-1.26 3.43-1.861 5.303-1.506.018 1.295-.033 2.59-.033 3.884-.856-.28-1.856-.202-2.604.325-.546.359-.961.908-1.177 1.53-.179.443-.128.936-.117 1.407.205 1.435 1.566 2.64 3.02 2.51.963-.01 1.886-.577 2.388-1.407.162-.29.344-.587.354-.929.085-1.564.05-3.121.061-4.686.007-3.525-.01-7.04.016-10.554z" fill="#fff" fill-opacity=".7"/></svg><svg fill="none" viewBox="0 0 25 15" id="icon-vk" xmlns="http://www.w3.org/2000/svg"><path fill-rule="evenodd" clip-rule="evenodd" d="M4.017.334H1.398C.65.334.5.68.5 1.062c0 .681.888 4.06 4.135 8.53 2.164 3.053 5.213 4.708 7.988 4.708 1.665 0 1.871-.368 1.871-1v-2.308c0-.735.158-.882.685-.882.389 0 1.054.191 2.608 1.663 1.776 1.744 2.07 2.527 3.068 2.527h2.62c.747 0 1.122-.368.906-1.093-.236-.723-1.084-1.772-2.21-3.015-.61-.708-1.526-1.472-1.803-1.853-.388-.49-.277-.709 0-1.145 0 0 3.191-4.415 3.524-5.914.166-.545 0-.946-.792-.946h-2.62c-.665 0-.972.346-1.139.728 0 0-1.332 3.188-3.219 5.26-.61.6-.887.79-1.22.79-.167 0-.408-.19-.408-.736V1.28c0-.654-.193-.946-.748-.946H9.63c-.416 0-.667.304-.667.591 0 .62.944.763 1.041 2.508V7.22c0 .83-.153.982-.486.982-.888 0-3.048-3.204-4.329-6.869-.25-.712-.502-1-1.172-1z" fill="#fff" fill-opacity=".7"/></svg><svg fill="none" viewBox="0 0 24 18" id="icon-yt" xmlns="http://www.w3.org/2000/svg"><path fill-rule="evenodd" clip-rule="evenodd" d="M22.558 1.903c.364.374.622.838.748 1.344a30.92 30.92 0 01.49 5.684 30.917 30.917 0 01-.49 5.6 2.964 2.964 0 01-2.069 2.132c-1.834.491-9.172.491-9.172.491s-7.337 0-9.171-.49a2.965 2.965 0 01-2.07-2.048 30.928 30.928 0 01-.49-5.685c-.01-1.891.155-3.78.49-5.641a2.965 2.965 0 012.07-2.133C4.728.666 12.065.666 12.065.666s7.338 0 9.172.448c.502.142.958.414 1.321.789zm-6.76 7.028L9.666 12.42V5.444l6.132 3.487z" fill="#fff" fill-opacity=".7"/></svg><svg fill="none" viewBox="0 0 21 15" id="link-arrow" xmlns="http://www.w3.org/2000/svg"><path opacity=".7" d="M1 7.5h19m0 0l-7-7m7 7l-7 7"/></svg><svg fill="none" viewBox="0 0 54 45" id="logo" xmlns="http://www.w3.org/2000/svg"><g opacity=".4" fill="#13264A"><path d="M45.387 13.62c-1.87 2.908-4.864 4.005-8.515 5.314C33.347 20.193 27 20.139 27 20.139c1.558.535 5.064 1.352 8.949 1.24 3.91-.115 5.885-1.002 8.41-1.237 3.076-.287 5.18 2.158 4.284 4.081 1.816-2.515 2.416-5.04 2.27-8.09a1.994 1.994 0 002.773-.6 2.005 2.005 0 00-1.424-3.062 1.992 1.992 0 00-1.79.699c-.615-2.106-1.947-4.302-3.943-6.34.844 1.951-.02 5.05-1.144 6.794"/><path d="M34.294 2.002a1.992 1.992 0 00.615 1.44C30.56 4.6 27.93 8.313 27 10.17c.887-1.003 4.857-3.01 6.44 0 .619 1.182.416 2.93-.706 4.391-1.096 1.429-2.42 2.512-2.985 2.97-1.024.832-2.276 1.979-2.749 2.609 3.037-.932 6.523-2.332 9.414-5.286 1.626-1.665 2.17-2.858 2.816-5.08.353-1.222 1.118-2.338 2.257-2.95 1.466-.79 3.386-.835 5.042.007-1.14-1.279-4.327-3.623-8.566-3.735A2.003 2.003 0 0036.859.086a1.991 1.991 0 00-2.352 1.02c-.14.278-.212.585-.212.896z"/><path d="M32.1 25.97c1.5 1.106 2.442 1.742 3.53 3.058 1.975 2.381 1.328 5.744-.294 7.196a111.303 111.303 0 005.777-4.404v.05a2.003 2.003 0 001.165 1.82 1.99 1.99 0 002.744-1.254 2.004 2.004 0 00-.608-2.075 1.992 1.992 0 00-1.023-.468c2.23-1.963 4.253-4.005 5.252-5.67-1.23 1.248-4.21 1.88-6.066 1.84-3.074-.073-4.823-.685-8.133-1.84-2.71-.94-6.356-2.604-7.444-4.084.554 1.525 2.065 3.597 5.1 5.826"/><path d="M25.41 29.525c-.205 1.649-.225 4.225-1.384 5.701-1.083 1.381-4.075 1.628-5.368.998 2.141 1.438 5.112 3.082 7.452 4.393a2 2 0 00-1.118 2.232 2.003 2.003 0 001.922 1.588 1.994 1.994 0 001.973-1.526 2.006 2.006 0 00-1.047-2.266c2.345-1.317 5.341-2.975 7.496-4.42-1.292.63-4.281.382-5.365-.999-1.158-1.476-1.182-4.052-1.385-5.701-.39-3.127-1.586-9.386-1.586-9.386s-1.196 6.257-1.59 9.384"/><path d="M15.711 2.003c-.001.39.112.773.327 1.1-4.246.112-7.428 2.449-8.572 3.727 1.656-.841 3.582-.79 5.046 0 1.139.613 1.906 1.729 2.258 2.952.645 2.213 1.189 3.407 2.815 5.068 2.89 2.954 6.377 4.357 9.415 5.289-.471-.63-1.727-1.785-2.75-2.613-.564-.457-1.89-1.54-2.988-2.969-1.121-1.46-1.324-3.21-.702-4.391 1.581-3.01 5.551-1 6.44.003-.93-1.857-3.562-5.572-7.91-6.73a1.999 1.999 0 00.172-2.69 1.995 1.995 0 00-2.659-.416 1.997 1.997 0 00-.892 1.67z"/><path d="M3.526 13.166a1.998 1.998 0 00-1.79-.697 1.994 1.994 0 00-1.549 1.138 2.005 2.005 0 00.849 2.6 1.979 1.979 0 002.048-.079c-.148 3.054.45 5.58 2.271 8.095-.9-1.923 1.206-4.371 4.282-4.085 2.527.235 4.497 1.123 8.41 1.236 3.883.113 7.393-.7 8.953-1.235 0 0-6.349.05-9.87-1.209-3.656-1.305-6.646-2.406-8.518-5.31-1.125-1.743-1.99-4.838-1.146-6.79-1.995 2.036-3.321 4.23-3.939 6.336"/><path d="M19.551 24.23c-3.305 1.155-5.06 1.76-8.133 1.832-1.857.041-4.836-.59-6.063-1.839.996 1.666 3.021 3.707 5.249 5.67a1.993 1.993 0 00-1.631 1.417 2.005 2.005 0 00.61 2.076 1.993 1.993 0 002.986-.435c.206-.323.315-.698.315-1.082a.449.449 0 00-.005-.049c2.268 1.85 4.462 3.47 5.779 4.404-1.622-1.452-2.268-4.811-.293-7.196 1.09-1.316 2.03-1.954 3.53-3.053 3.037-2.233 4.545-4.315 5.105-5.836-1.09 1.48-4.737 3.147-7.449 4.091z"/></g></svg></svg>