<svg width="67" height="28" xmlns="http://www.w3.org/2000/svg"><path d="M12.475 3.61c.777-.971 1.304-2.276 1.165-3.61-1.137.057-2.526.75-3.33 1.723-.72.833-1.36 2.193-1.193 3.47 1.277.112 2.553-.638 3.358-1.582zm1.151 1.833c-1.855-.11-3.432 1.053-4.317 1.053-.886 0-2.242-.997-3.71-.97C3.692 5.554 1.92 6.633.95 8.35c-1.992 3.434-.526 8.53 1.412 11.326.941 1.384 2.075 2.908 3.57 2.853 1.412-.055 1.965-.914 3.681-.914 1.715 0 2.214.914 3.708.886 1.55-.027 2.52-1.384 3.46-2.77 1.08-1.577 1.522-3.1 1.55-3.184-.028-.027-2.99-1.163-3.017-4.57-.028-2.851 2.325-4.208 2.436-4.292-1.33-1.965-3.405-2.185-4.124-2.242zm16.147-3.859c4.03 0 6.838 2.778 6.838 6.823 0 4.06-2.865 6.853-6.939 6.853H25.21v7.097h-3.224V1.584h7.788zm-4.564 10.97h3.7c2.807 0 4.405-1.512 4.405-4.132 0-2.62-1.598-4.117-4.39-4.117h-3.715v8.248zm12.244 5.499c0-2.65 2.03-4.276 5.629-4.478l4.146-.244v-1.166c0-1.684-1.138-2.692-3.038-2.692-1.8 0-2.922.863-3.195 2.217h-2.937c.172-2.736 2.504-4.751 6.248-4.751 3.67 0 6.017 1.943 6.017 4.98v10.438h-2.98v-2.49h-.072c-.878 1.684-2.793 2.749-4.78 2.749-2.965 0-5.038-1.843-5.038-4.563zm9.775-1.368V15.49l-3.729.23c-1.857.13-2.908.95-2.908 2.246 0 1.325 1.094 2.188 2.764 2.188 2.174 0 3.873-1.497 3.873-3.469zm5.908 11.243v-2.52c.23.058.748.058 1.007.058 1.44 0 2.217-.604 2.692-2.159 0-.029.274-.921.274-.936l-5.47-15.158h3.368l3.83 12.322h.057l3.83-12.322h3.282l-5.673 15.936C59.038 26.819 57.541 28 54.403 28c-.26 0-1.037-.029-1.267-.072z"/></svg>