<svg width="111" height="91" fill="none" xmlns="http://www.w3.org/2000/svg"><path d="M92.748 27.876c-3.82 5.942-9.941 8.184-17.401 10.858-7.202 2.573-20.172 2.462-20.172 2.462 3.182 1.095 10.348 2.764 18.285 2.533 7.99-.233 12.027-2.046 17.188-2.526 6.284-.586 10.584 4.409 8.753 8.34 3.71-5.14 4.938-10.3 4.64-16.534.66.435 1.434.666 2.224.665a4.077 4.077 0 003.443-1.893 4.099 4.099 0 00-1.029-5.498 4.078 4.078 0 00-5.542.672c-1.256-4.303-3.978-8.79-8.056-12.955 1.724 3.987-.04 10.321-2.337 13.883" fill="#C5C5C5"/><path d="M92.748 27.876c-3.82 5.942-9.941 8.184-17.401 10.858-7.202 2.573-20.172 2.462-20.172 2.462 3.182 1.095 10.348 2.764 18.285 2.533 7.99-.233 12.027-2.046 17.188-2.526 6.284-.586 10.584 4.409 8.753 8.34 3.71-5.14 4.938-10.3 4.64-16.534.66.435 1.434.666 2.224.665a4.077 4.077 0 003.443-1.893 4.099 4.099 0 00-1.029-5.498 4.078 4.078 0 00-5.542.672c-1.256-4.303-3.978-8.79-8.056-12.955 1.724 3.987-.04 10.321-2.337 13.883" fill="#C5C9CE"/><path d="M70.08 4.134a4.07 4.07 0 001.256 2.944c-8.89 2.365-14.263 9.95-16.162 13.745 1.813-2.05 9.926-6.15 13.159 0 1.265 2.416.851 5.988-1.44 8.973-2.242 2.92-4.948 5.133-6.1 6.067-2.095 1.702-4.652 4.046-5.618 5.333 6.206-1.904 13.328-4.765 19.236-10.8 3.324-3.404 4.435-5.843 5.755-10.38.72-2.5 2.284-4.78 4.612-6.031 2.995-1.615 6.92-1.705 10.303.015-2.331-2.613-8.841-7.404-17.505-7.633a4.095 4.095 0 00-.627-5.21A4.076 4.076 0 0071.72.86a4.084 4.084 0 00-1.64 3.274z" fill="#C5C5C5"/><path d="M70.08 4.134a4.07 4.07 0 001.256 2.944c-8.89 2.365-14.263 9.95-16.162 13.745 1.813-2.05 9.926-6.15 13.159 0 1.265 2.416.851 5.988-1.44 8.973-2.242 2.92-4.948 5.133-6.1 6.067-2.095 1.702-4.652 4.046-5.618 5.333 6.206-1.904 13.328-4.765 19.236-10.8 3.324-3.404 4.435-5.843 5.755-10.38.72-2.5 2.284-4.78 4.612-6.031 2.995-1.615 6.92-1.705 10.303.015-2.331-2.613-8.841-7.404-17.505-7.633a4.095 4.095 0 00-.627-5.21A4.076 4.076 0 0071.72.86a4.084 4.084 0 00-1.64 3.274z" fill="#C5C9CE"/><path d="M65.595 53.114c3.065 2.257 4.99 3.558 7.215 6.247 4.034 4.866 2.712 11.737-.602 14.705 2.69-1.908 7.18-5.216 11.806-9v.1a4.093 4.093 0 002.38 3.721 4.068 4.068 0 004.364-.625 4.086 4.086 0 001.244-4.24 4.086 4.086 0 00-3.332-2.894c4.555-4.01 8.69-8.184 10.73-11.586-2.512 2.55-8.603 3.842-12.394 3.759-6.283-.148-9.856-1.4-16.62-3.759-5.538-1.922-12.99-5.32-15.211-8.346 1.132 3.116 4.22 7.352 10.42 11.906" fill="#C5C5C5"/><path d="M65.595 53.114c3.065 2.257 4.99 3.558 7.215 6.247 4.034 4.866 2.712 11.737-.602 14.705 2.69-1.908 7.18-5.216 11.806-9v.1a4.093 4.093 0 002.38 3.721 4.068 4.068 0 004.364-.625 4.086 4.086 0 001.244-4.24 4.086 4.086 0 00-3.332-2.894c4.555-4.01 8.69-8.184 10.73-11.586-2.512 2.55-8.603 3.842-12.394 3.759-6.283-.148-9.856-1.4-16.62-3.759-5.538-1.922-12.99-5.32-15.211-8.346 1.132 3.116 4.22 7.352 10.42 11.906" fill="#C5C9CE"/><path d="M51.926 60.376c-.42 3.37-.462 8.635-2.829 11.65-2.214 2.823-8.328 3.328-10.97 2.04 4.376 2.938 10.446 6.298 15.227 8.977a4.1 4.1 0 00-.887 6.873 4.076 4.076 0 006.562-2.185 4.1 4.1 0 00-2.138-4.63c4.791-2.691 10.914-6.08 15.317-9.035-2.64 1.288-8.749.783-10.963-2.04-2.366-3.015-2.415-8.28-2.83-11.65-.797-6.39-3.24-19.18-3.24-19.18s-2.445 12.786-3.248 19.176" fill="#C5C5C5"/><path d="M51.926 60.376c-.42 3.37-.462 8.635-2.829 11.65-2.214 2.823-8.328 3.328-10.97 2.04 4.376 2.938 10.446 6.298 15.227 8.977a4.1 4.1 0 00-.887 6.873 4.076 4.076 0 006.562-2.185 4.1 4.1 0 00-2.138-4.63c4.791-2.691 10.914-6.08 15.317-9.035-2.64 1.288-8.749.783-10.963-2.04-2.366-3.015-2.415-8.28-2.83-11.65-.797-6.39-3.24-19.18-3.24-19.18s-2.445 12.786-3.248 19.176" fill="#C5C9CE"/><path d="M32.105 4.135c-.002.8.23 1.581.668 2.248-8.677.23-15.179 5.005-17.516 7.618 3.384-1.72 7.319-1.615 10.31 0 2.328 1.252 3.896 3.532 4.616 6.031 1.317 4.523 2.428 6.962 5.752 10.357 5.904 6.035 13.03 8.903 19.24 10.807-.964-1.287-3.53-3.647-5.621-5.339-1.153-.934-3.864-3.148-6.104-6.067-2.292-2.985-2.707-6.559-1.436-8.973 3.231-6.15 11.343-2.044 13.16.006-1.9-3.795-7.279-11.386-16.165-13.751a4.086 4.086 0 001.181-3.685 4.09 4.09 0 00-2.416-3.02A4.068 4.068 0 0032.589 2.2a4.094 4.094 0 00-.484 1.936z" fill="#C5C5C5"/><path d="M32.105 4.135c-.002.8.23 1.581.668 2.248-8.677.23-15.179 5.005-17.516 7.618 3.384-1.72 7.319-1.615 10.31 0 2.328 1.252 3.896 3.532 4.616 6.031 1.317 4.523 2.428 6.962 5.752 10.357 5.904 6.035 13.03 8.903 19.24 10.807-.964-1.287-3.53-3.647-5.621-5.339-1.153-.934-3.864-3.148-6.104-6.067-2.292-2.985-2.707-6.559-1.436-8.973 3.231-6.15 11.343-2.044 13.16.006-1.9-3.795-7.279-11.386-16.165-13.751a4.086 4.086 0 001.181-3.685 4.09 4.09 0 00-2.416-3.02A4.068 4.068 0 0032.589 2.2a4.094 4.094 0 00-.484 1.936z" fill="#C5C9CE"/><path d="M7.205 26.947a4.08 4.08 0 00-3.658-1.424 4.075 4.075 0 00-3.165 2.326 4.098 4.098 0 001.735 5.313 4.043 4.043 0 004.184-.161c-.302 6.24.92 11.403 4.642 16.541-1.839-3.93 2.464-8.933 8.75-8.347 5.163.48 9.189 2.294 17.185 2.526 7.935.23 15.109-1.43 18.297-2.525 0 0-12.974.103-20.17-2.47-7.472-2.666-13.582-4.916-17.407-10.85-2.297-3.563-4.065-9.888-2.34-13.875-4.08 4.16-6.788 8.643-8.05 12.946" fill="#C5C5C5"/><path d="M7.205 26.947a4.08 4.08 0 00-3.658-1.424 4.075 4.075 0 00-3.165 2.326 4.098 4.098 0 001.735 5.313 4.043 4.043 0 004.184-.161c-.302 6.24.92 11.403 4.642 16.541-1.839-3.93 2.464-8.933 8.75-8.347 5.163.48 9.189 2.294 17.185 2.526 7.935.23 15.109-1.43 18.297-2.525 0 0-12.974.103-20.17-2.47-7.472-2.666-13.582-4.916-17.407-10.85-2.297-3.563-4.065-9.888-2.34-13.875-4.08 4.16-6.788 8.643-8.05 12.946" fill="#C5C9CE"/><path d="M39.952 49.557c-6.754 2.36-10.338 3.596-16.62 3.744-3.795.083-9.882-1.208-12.389-3.759 2.035 3.404 6.174 7.576 10.726 11.586a4.074 4.074 0 00-3.333 2.897 4.097 4.097 0 001.246 4.241 4.074 4.074 0 006.102-.888c.422-.66.645-1.427.644-2.211a.96.96 0 00-.01-.1 231.766 231.766 0 0011.808 8.999c-3.314-2.968-4.632-9.831-.597-14.706 2.227-2.688 4.15-3.993 7.214-6.239 6.204-4.562 9.287-8.817 10.432-11.925-2.228 3.025-9.68 6.431-15.223 8.361z" fill="#C5C5C5"/><path d="M39.952 49.557c-6.754 2.36-10.338 3.596-16.62 3.744-3.795.083-9.882-1.208-12.389-3.759 2.035 3.404 6.174 7.576 10.726 11.586a4.074 4.074 0 00-3.333 2.897 4.097 4.097 0 001.246 4.241 4.074 4.074 0 006.102-.888c.422-.66.645-1.427.644-2.211a.96.96 0 00-.01-.1 231.766 231.766 0 0011.808 8.999c-3.314-2.968-4.632-9.831-.597-14.706 2.227-2.688 4.15-3.993 7.214-6.239 6.204-4.562 9.287-8.817 10.432-11.925-2.228 3.025-9.68 6.431-15.223 8.361z" fill="#C5C9CE"/></svg>