<svg width="72" height="28" xmlns="http://www.w3.org/2000/svg"><path d="M33.308 21.873h-2.62V1.487h6.945c1.76 0 3.262.587 4.49 1.76 1.255 1.174 1.883 2.607 1.883 4.299 0 1.733-.628 3.165-1.883 4.325-1.215 1.16-2.716 1.733-4.49 1.733h-4.325v8.27zm0-17.875v7.11h4.38c1.037 0 1.91-.356 2.593-1.052.696-.695 1.05-1.541 1.05-2.497 0-.941-.354-1.773-1.05-2.47-.683-.723-1.542-1.077-2.593-1.077h-4.38v-.014zm17.548 3.466c1.938 0 3.466.518 4.585 1.555 1.118 1.037 1.678 2.457 1.678 4.258v8.596h-2.497v-1.937h-.11c-1.077 1.596-2.524 2.388-4.325 2.388-1.542 0-2.824-.45-3.861-1.365-1.037-.914-1.556-2.047-1.556-3.411 0-1.447.546-2.593 1.637-3.439 1.092-.86 2.552-1.283 4.367-1.283 1.556 0 2.838.287 3.834.86v-.6c0-.915-.354-1.679-1.078-2.32-.723-.641-1.569-.955-2.538-.955-1.46 0-2.62.614-3.466 1.856L45.22 10.22c1.27-1.842 3.152-2.756 5.636-2.756zm-3.384 10.125c0 .682.286 1.255.873 1.705.573.45 1.255.683 2.033.683 1.105 0 2.088-.41 2.948-1.229.86-.818 1.296-1.773 1.296-2.879-.819-.641-1.951-.969-3.411-.969-1.065 0-1.952.26-2.661.765-.723.532-1.078 1.173-1.078 1.924zm23.893-9.675L62.632 28H59.93l3.248-7.027-5.759-13.059h2.852l4.148 10.016h.055l4.039-10.016h2.852zm-48.478 4.039c0-.854-.076-1.671-.218-2.457H11.687v4.503l6.325.001a5.417 5.417 0 01-2.347 3.627v2.921h3.765c2.198-2.034 3.457-5.041 3.457-8.595z"/><path d="M15.666 17.627c-1.048.707-2.397 1.12-3.976 1.12-3.05 0-5.637-2.055-6.563-4.825H1.243v3.013a11.69 11.69 0 0010.447 6.438c3.157 0 5.81-1.039 7.74-2.826l-3.764-2.92z"/><path d="M4.76 11.687c0-.778.13-1.53.367-2.236V6.438H1.243A11.628 11.628 0 000 11.688c0 1.888.449 3.67 1.243 5.248l3.884-3.012a7.049 7.049 0 01-.366-2.237z"/><path d="M11.69 4.626c1.723 0 3.267.593 4.485 1.753l3.336-3.333C17.485 1.158 14.843 0 11.69 0 7.123 0 3.167 2.62 1.243 6.438L5.127 9.45c.926-2.77 3.513-4.825 6.563-4.825z"/></svg>