<svg width="25" height="15" fill="none" xmlns="http://www.w3.org/2000/svg"><path fill-rule="evenodd" clip-rule="evenodd" d="M4.017.334H1.398C.65.334.5.68.5 1.062c0 .681.888 4.06 4.135 8.53 2.164 3.053 5.213 4.708 7.988 4.708 1.665 0 1.871-.368 1.871-1v-2.308c0-.735.158-.882.685-.882.389 0 1.054.191 2.608 1.663 1.776 1.744 2.07 2.527 3.068 2.527h2.62c.747 0 1.122-.368.906-1.093-.236-.723-1.084-1.772-2.21-3.015-.61-.708-1.526-1.472-1.803-1.853-.388-.49-.277-.709 0-1.145 0 0 3.191-4.415 3.524-5.914.166-.545 0-.946-.792-.946h-2.62c-.665 0-.972.346-1.139.728 0 0-1.332 3.188-3.219 5.26-.61.6-.887.79-1.22.79-.167 0-.408-.19-.408-.736V1.28c0-.654-.193-.946-.748-.946H9.63c-.416 0-.667.304-.667.591 0 .62.944.763 1.041 2.508V7.22c0 .83-.153.982-.486.982-.888 0-3.048-3.204-4.329-6.869-.25-.712-.502-1-1.172-1z" fill="#fff" fill-opacity=".7"/></svg>