<svg width="19" height="22" fill="none" xmlns="http://www.w3.org/2000/svg"><path d="M10.115.184c1.129-.018 2.251-.007 3.373-.018.067 1.339.542 2.702 1.509 3.648.965.97 2.33 1.414 3.657 1.564V8.9c-1.244-.04-2.494-.303-3.623-.846-.492-.226-.95-.516-1.399-.813-.005 2.555.01 5.106-.016 7.651a6.714 6.714 0 01-1.166 3.446c-1.129 1.677-3.087 2.77-5.099 2.805-1.233.071-2.466-.27-3.517-.898C2.09 19.202.865 17.296.687 15.25c-.02-.438-.028-.874-.01-1.301A6.584 6.584 0 012.904 9.61c1.429-1.26 3.43-1.861 5.303-1.506.018 1.295-.033 2.59-.033 3.884-.856-.28-1.856-.202-2.604.325a3.023 3.023 0 00-1.177 1.53c-.179.443-.128.936-.117 1.407.205 1.435 1.566 2.64 3.02 2.51.963-.01 1.886-.577 2.388-1.407.162-.29.344-.587.354-.929.085-1.564.05-3.121.061-4.686.007-3.525-.01-7.04.016-10.554z" fill="#fff" fill-opacity=".7"/></svg>