<svg width="13" height="22" fill="none" xmlns="http://www.w3.org/2000/svg"><path d="M6.187 11.011c2.939 0 5.334-2.435 5.334-5.422C11.521 2.6 9.127.166 6.188.166 3.217.166.821 2.601.821 5.589c0 2.987 2.396 5.422 5.366 5.422zm0-7.663c1.214 0 2.204 1.007 2.204 2.24 0 1.235-.99 2.241-2.204 2.241-1.214 0-2.204-1.006-2.204-2.24a2.187 2.187 0 012.204-2.24zm2.14 12.112c1.086-.26 2.14-.682 3.099-1.299.734-.454.958-1.46.479-2.208a1.541 1.541 0 00-2.172-.487 6.689 6.689 0 01-7.187 0 1.575 1.575 0 00-2.172.487c-.416.747-.192 1.721.543 2.176a10 10 0 003.098 1.299l-2.97 3.02a1.606 1.606 0 000 2.24 1.5 1.5 0 001.117.455 1.64 1.64 0 001.118-.455l2.94-2.987 2.938 2.987a1.544 1.544 0 002.204 0 1.606 1.606 0 000-2.24L8.327 15.46z" fill="#fff" fill-opacity=".7"/></svg>