<svg width="24" height="18" fill="none" xmlns="http://www.w3.org/2000/svg"><path fill-rule="evenodd" clip-rule="evenodd" d="M22.558 1.903c.364.374.622.838.748 1.344a30.92 30.92 0 01.49 5.684 30.917 30.917 0 01-.49 5.6 2.964 2.964 0 01-2.069 2.132c-1.834.491-9.172.491-9.172.491s-7.337 0-9.171-.49a2.965 2.965 0 01-2.07-2.048 30.928 30.928 0 01-.49-5.685c-.01-1.891.155-3.78.49-5.641a2.965 2.965 0 012.07-2.133C4.728.666 12.065.666 12.065.666s7.338 0 9.172.448a2.96 2.96 0 011.321.789zm-6.76 7.028L9.666 12.42V5.444l6.132 3.487z" fill="#fff" fill-opacity=".7"/></svg>