<svg width="42" height="26" fill="none" xmlns="http://www.w3.org/2000/svg"><path d="M26.346 2.719H15.263v19.99h11.083V2.719z" fill="#9FA1A4"/><path d="M15.977 12.713a12.73 12.73 0 011.27-5.557 12.683 12.683 0 013.567-4.438 12.626 12.626 0 00-13.363-1.44 12.683 12.683 0 00-5.2 4.69 12.748 12.748 0 000 13.49 12.683 12.683 0 005.2 4.69 12.626 12.626 0 0013.363-1.44 12.683 12.683 0 01-3.566-4.438 12.73 12.73 0 01-1.271-5.557z" fill="#B6B8BB"/><path d="M41.299 12.713c0 2.386-.669 4.723-1.93 6.745a12.682 12.682 0 01-5.2 4.69 12.625 12.625 0 01-13.363-1.44 12.706 12.706 0 003.564-4.439 12.754 12.754 0 000-11.112 12.706 12.706 0 00-3.565-4.439 12.625 12.625 0 0113.363-1.44 12.683 12.683 0 015.202 4.69 12.748 12.748 0 011.929 6.745zm-1.193 7.877v-.409h.164v-.083h-.418v.084h.164v.409h.09zm.813 0v-.493h-.128l-.148.34-.148-.34h-.128v.494h.09v-.373l.139.321h.094l.138-.321v.373h.09z" fill="#B6B8BB"/></svg>1687 24.1477C32.0311 25.1903 29.6443 25.6082 27.2812 25.3536C24.9181 25.0991 22.6741 24.1823 20.8055 22.7082C22.3131 21.5184 23.5319 20.0005 24.3699 18.2691C25.2079 16.5378 25.6433 14.638 25.6433 12.7131C25.6433 10.7882 25.2079 8.88847 24.3699 7.15708C23.5319 5.4257 22.3131 3.90787 20.8055 2.71807C22.6741 1.24392 24.9181 0.327172 27.2812 0.0726049C29.6443 -0.181963 32.0311 0.235925 34.1687 1.2785C36.3063 2.32108 38.1086 3.94627 39.3695 5.96832C40.6303 7.99038 41.2989 10.3277 41.2988 12.7131Z" fill="#B6B8BB"/>
<path d="M40.1059 20.5907V20.1815H40.2703V20.0981H39.8516V20.1815H40.016V20.5907H40.1059ZM40.9188 20.5907V20.0973H40.7905L40.6428 20.4367L40.4952 20.0973H40.3667V20.5907H40.4574V20.2185L40.5958 20.5394H40.6898L40.8282 20.2177V20.5907H40.9188Z" fill="#B6B8BB"/>
</svg>
