<svg width="34" height="41" viewBox="0 0 34 41" fill="none" xmlns="http://www.w3.org/2000/svg">
<path d="M17 23.75C20.5346 23.75 23.4 20.8399 23.4 17.25C23.4 13.6601 20.5346 10.75 17 10.75C13.4654 10.75 10.6 13.6601 10.6 17.25C10.6 20.8399 13.4654 23.75 17 23.75ZM17 23.75C15.1371 23.75 13.2994 24.1905 11.6331 25.0366C9.96684 25.8827 8.51735 27.1111 7.39941 28.6246M17 23.75C18.8629 23.75 20.7 24.1904 22.3663 25.0363C24.0327 25.8823 25.4822 27.1107 26.6002 28.6241M33 2.625V38.375C33 39.2725 32.2837 40 31.4 40H2.6C1.71635 40 1 39.2725 1 38.375V2.625C1 1.72754 1.71635 1 2.6 1H31.4C32.2837 1 33 1.72754 33 2.625Z" stroke="#127CE1" stroke-width="2" stroke-linecap="round" stroke-linejoin="round"/>
</svg>
