<svg width="23" height="21" fill="none" xmlns="http://www.w3.org/2000/svg"><path d="M.726 20.25a.5.5 0 10.866.5l-.866-.5zm21.09.5a.5.5 0 10.867-.5l-.866.5zM18.162 7.457a6.457 6.457 0 01-6.457 6.457v1a7.457 7.457 0 007.457-7.457h-1zm-6.457 6.457a6.457 6.457 0 01-6.456-6.457h-1a7.457 7.457 0 007.456 7.457v-1zM5.248 7.457A6.457 6.457 0 0111.704 1V0a7.457 7.457 0 00-7.456 7.457h1zM11.704 1a6.457 6.457 0 016.457 6.457h1A7.457 7.457 0 0011.704 0v1zM1.592 20.75a11.679 11.679 0 014.275-4.273l-.5-.866a12.678 12.678 0 00-4.64 4.639l.865.5zm4.275-4.273a11.679 11.679 0 015.837-1.563v-1c-2.224 0-4.41.585-6.337 1.697l.5.866zm5.837-1.563c2.05 0 4.063.539 5.838 1.563l.5-.866a12.679 12.679 0 00-6.338-1.697v1zm5.838 1.563a11.679 11.679 0 014.275 4.273l.866-.5a12.678 12.678 0 00-4.64-4.639l-.5.866z"/></svg>