<svg width="201" height="28" xmlns="http://www.w3.org/2000/svg"><path d="M156.615 11.06h-2.91V3.528h2.91c2.267 0 3.807 1.68 3.807 3.752 0 2.1-1.54 3.78-3.807 3.78zm.28-11.06h-6.996v20.44h3.806v-5.852h3.162c4.254 0 7.388-3.248 7.388-7.308 0-4.032-3.134-7.28-7.36-7.28zm17.045 17.303c-2.799 0-4.953-2.24-4.953-5.095 0-2.828 2.154-5.04 4.953-5.04 2.798 0 4.897 2.268 4.897 5.04 0 2.828-2.099 5.095-4.897 5.095zm4.702-11.283c-1.176-1.4-3.107-2.297-5.261-2.297-4.142 0-8.116 3.109-8.116 8.54 0 5.35 4.113 8.513 8.059 8.513 2.155 0 4.114-.952 5.318-2.464v2.128h3.777V4.06h-3.777v1.96zm13.883 9.072L187.963 4.06h-4.03l6.717 15.568L187.207 28h3.835l9.766-23.94h-3.974l-4.309 11.032zm-81.795.548h-.105L106.231.61h-7.097v18.949h4.703l-.265-15.548h.105l4.72 15.548h6.808V.609h-4.735l.26 15.03zM24.708 2.384l.107-.002 2.548 17.374H32.5L28.976.61H20.47l-3.544 19.146h5.167l2.615-17.372zM49.358.61L47 15.25h-.109L44.537.61h-7.799l-.421 19.146h4.785l.12-17.212h.105l3.194 17.212h4.851l3.195-17.21.106-.002.12 17.212h4.781L57.153.61h-7.795zM6.949 20.505c3.459 0 6.303-1.181 6.758-4.378.232-1.652.061-2.735-.02-3.138-.808-4.01-8.061-5.205-8.603-7.447a2.468 2.468 0 01-.02-1.007c.135-.614.55-1.285 1.746-1.285 1.12 0 1.776.691 1.776 1.735V6.17h4.771V4.822C13.357.652 9.617 0 6.912 0 3.513 0 .733 1.128.227 4.25.088 5.104.069 5.868.27 6.833c.83 3.913 7.624 5.044 8.609 7.522.187.463.127 1.057.038 1.416-.156.638-.589 1.289-1.863 1.289-1.195 0-1.92-.694-1.92-1.736l-.005-1.856H.002L0 14.944c0 4.271 3.356 5.561 6.949 5.561zM67.282 5.59a2.441 2.441 0 01-.024-.993c.136-.609.548-1.273 1.73-1.273 1.111 0 1.76.682 1.76 1.717v1.172h4.724V4.88c0-4.129-3.705-4.773-6.384-4.773-3.362 0-6.115 1.113-6.615 4.206-.138.846-.157 1.603.044 2.556.818 3.876 7.547 4.995 8.522 7.45.183.46.126 1.044.036 1.402-.154.63-.582 1.272-1.844 1.272-1.184 0-1.903-.683-1.903-1.718l-.004-1.835h-5.076l-.001 1.461c0 4.229 3.324 5.505 6.88 5.505 3.425 0 6.241-1.169 6.69-4.334.23-1.636.062-2.707-.02-3.108-.8-3.97-7.981-5.153-8.515-7.373zM93.806.607h-4.839V14.77c.002.246-.005.525-.045.731-.095.471-.504 1.388-1.833 1.388-1.331 0-1.742-.917-1.835-1.388a3.741 3.741 0 01-.046-.731V.607h-4.835v13.727c-.01.354.027 1.074.044 1.26.335 3.574 3.156 4.732 6.672 4.732 3.514 0 6.335-1.158 6.668-4.731.02-.187.056-.908.05-1.26V.606zm33.199 8.396v2.791h1.96v2.781c.004.242-.006.51-.045.726-.087.512-.57 1.39-1.954 1.39-1.383 0-1.865-.878-1.955-1.39a4.466 4.466 0 01-.045-.726V5.822a4.6 4.6 0 01.078-.906c.105-.472.514-1.39 1.904-1.39 1.462 0 1.825.968 1.912 1.39.057.276.061.731.06.73v1.073h4.822V6.08c-.004 0 .017-.651-.045-1.26-.352-3.591-3.32-4.732-6.71-4.732-3.393 0-6.285 1.152-6.711 4.731-.04.32-.081.92-.081 1.26l-.001 8.056c.001.36.011.623.066 1.26.319 3.488 3.334 4.732 6.725 4.732 3.388 0 6.407-1.245 6.723-4.732.058-.637.066-.9.07-1.26V9.003h-6.773z"/></svg>