<svg width="79" height="28" xmlns="http://www.w3.org/2000/svg"><path d="M56.953 17.003c1.408-.427 2.915-.226 4.364-.27.471 2.423-2.492 3.78-4.43 2.891-1.048-.472-1.072-2.255.066-2.621zM41.387 7.12c2.002.075 4.107-.26 6.028.451 1.579.574 1.849 2.59 1.357 3.995-.342 1.152-1.49 1.821-2.615 2.002-1.578.253-3.184.082-4.774.127.017-2.19.02-4.385.004-6.575zm24.447 2.215c1.791 4.411 3.63 8.802 5.454 13.2-.376.83-.645 1.945-1.613 2.266-.751.284-1.483-.174-2.115-.526.03.953.027 1.907-.007 2.857 1.094.595 2.45.71 3.616.27 1.288-.643 1.907-2.04 2.412-3.305 1.757-4.917 3.496-9.842 5.277-14.749-1.067-.01-2.133-.01-3.199-.014-1.029 2.94-1.828 5.964-2.963 8.865-1.192-2.946-2.32-5.919-3.52-8.865a265.93 265.93 0 01-3.342 0zm-11.8.919c.01 1.274.01 2.55-.027 3.824 1.288-1.948 3.892-2.748 6.09-2.075 1.151.39 1.161 1.757 1.227 2.762-1.764.01-3.548-.072-5.294.228-1.326.223-2.662 1.159-2.874 2.563-.325 1.63.072 3.657 1.647 4.511 2.252 1.196 5.557.482 6.66-1.961-.006.769-.003 1.534 0 2.303.954.004 1.907.004 2.86 0-.037-3.154.076-6.312-.057-9.462-.048-1.764-1.425-3.274-3.137-3.599-2.355-.454-5.01-.413-7.095.906zM24.78 5.446c-3.64 2.74-7.3 5.45-10.956 8.164-1.737-1.128-3.503-2.211-5.243-3.332 0 1.353-.01 2.706.01 4.056 1.764 1.056 3.486 2.177 5.216 3.29 4.237-3.112 8.437-6.277 12.654-9.417-.506-.954-1.039-1.893-1.681-2.761zm13.358-1.36c.01 6.11.02 12.216.014 18.323 1.076 0 2.152 0 3.229.007.051-1.893.017-3.79.024-5.683 2.85-.027 5.956.229 8.471-1.377 2.512-1.617 2.967-5.136 1.983-7.761-.77-1.989-2.898-2.99-4.894-3.264-2.925-.396-5.885-.201-8.827-.246zM.01 13.635c-.205 5.188 2.823 10.321 7.412 12.724 2.358 1.387 5.184 1.831 7.884 1.568 4.692-.482 8.96-3.622 10.949-7.88 1.367-2.618 1.592-5.67 1.179-8.557-.984.758-1.996 1.48-2.97 2.248.069 3.828-1.982 7.624-5.3 9.555-2.642 1.569-5.99 1.904-8.875.827-3.855-1.33-6.69-5.078-7.016-9.127-.481-4.399 2.092-8.9 6.11-10.734 3.322-1.61 7.427-1.23 10.461.844.909-.67 1.804-1.353 2.71-2.023-2.556-1.9-5.652-3.134-8.871-3.08C6.445-.076.037 6.442.01 13.638z"/></svg>