<svg width="33" height="74" fill="none" xmlns="http://www.w3.org/2000/svg"><path d="M18.17 27.71V2.804c0-.677 0-1.016-.037-1.205C17.8-.115 15.495-.588 14.514.857c-.108.16-.234.455-.488 1.048C5.535 21.729-4.59 51.495 2.258 60.71c4.947 6.658 14.62 10.238 23.471 12.004 3.168.632 4.752.948 4.92.953 1.854.053 2.68-1.25 1.841-2.904-.076-.15-1.3-1.8-3.745-5.1C20.7 54.81 18.254 37.352 18.169 27.71z" fill="url(#paint0_linear_1328:44947)"/><path d="M18.17 27.71V2.804c0-.677 0-1.016-.037-1.205C17.8-.115 15.495-.588 14.514.857c-.108.16-.234.455-.488 1.048C5.535 21.729-4.59 51.495 2.258 60.71c4.947 6.658 14.62 10.238 23.471 12.004 3.168.632 4.752.948 4.92.953 1.854.053 2.68-1.25 1.841-2.904-.076-.15-1.3-1.8-3.745-5.1C20.7 54.81 18.254 37.352 18.169 27.71z" fill="url(#paint1_radial_1328:44947)"/><path d="M18.17 27.71V2.804c0-.677 0-1.016-.037-1.205C17.8-.115 15.495-.588 14.514.857c-.108.16-.234.455-.488 1.048C5.535 21.729-4.59 51.495 2.258 60.71c4.947 6.658 14.62 10.238 23.471 12.004 3.168.632 4.752.948 4.92.953 1.854.053 2.68-1.25 1.841-2.904-.076-.15-1.3-1.8-3.745-5.1C20.7 54.81 18.254 37.352 18.169 27.71z" fill="#F7FAFD"/><path d="M18.17 27.71V2.804c0-.677 0-1.016-.037-1.205C17.8-.115 15.495-.588 14.514.857c-.108.16-.234.455-.488 1.048C5.535 21.729-4.59 51.495 2.258 60.71c4.947 6.658 14.62 10.238 23.471 12.004 3.168.632 4.752.948 4.92.953 1.854.053 2.68-1.25 1.841-2.904-.076-.15-1.3-1.8-3.745-5.1C20.7 54.81 18.254 37.352 18.169 27.71z" fill="#fff"/><defs><radialGradient id="paint1_radial_1328:44947" cx="0" cy="0" r="1" gradientUnits="userSpaceOnUse" gradientTransform="matrix(.73828 -5.99644 1.84185 .22677 18.816 73.273)"><stop stop-color="#99D4FF"/><stop offset="1" stop-color="#4E91F5"/></radialGradient><linearGradient id="paint0_linear_1328:44947" x1="19.352" y1="66.102" x2="18.137" y2="66.192" gradientUnits="userSpaceOnUse"><stop stop-color="#99CDFF"/><stop offset=".98" stop-color="#379EFF"/></linearGradient></defs></svg>